# xmcd
#
# Track frame offsets:
#	150
#	15764
#	38542
#	58138
#	78954
#	97773
#	133011
#	152971
#	172648
#	198277
#	216609
#	236461
#	256765
#	273748
#	305060
#	329406
#
# Disc length: 4725 seconds
#
# Revision: 1
# Processed by: cddbd v1.5PL3 Copyright (c) Steve Scherf et al.
# Submitted via: audiograbber 1.83.01
#
DISCID=cf127310
DTITLE=Various Artist - Dream Dance. Volume 49. [CD 1) (2003)
DYEAR=1900
DGENRE=
TTITLE0=Alpha. - Wonder.
TTITLE1=Lost Tribe. - Gamemater. (Michael Woods Mix)
TTITLE2=Ivan Traka. - Emotion.
TTITLE3=Dito. - Ocean. (Club Mix)
TTITLE4=Base. - Ready.
TTITLE5=Chicane feat. Bryan Adams. - Don't Give Up'2004.
TTITLE6=A Few Seconds After Trancefer. - A Few Seconds After Trancefer.
TTITLE7=Star Alliance. - Ground Zero.
TTITLE8=Blank And Jones. - A Forrest. (Exor Rmx)
TTITLE9=Mia. - Forever. (Eric Kupper Club Dub)
TTITLE10=Solex. - Close To The Edge.
TTITLE11=ATB. - Long Way Home. (Steve Murano Rmx)
TTITLE12=Orielle. - All I Know 4 Tune. (500 Rmx)
TTITLE13=Airwave. - When Things Go Wrong.
TTITLE14=Dumonde. - Human. (Dj Spacecase and Observer Mix)
TTITLE15=Astral Project. - Aurora Borealis.
EXTD=
EXTT0=
EXTT1=
EXTT2=
EXTT3=
EXTT4=
EXTT5=
EXTT6=
EXTT7=
EXTT8=
EXTT9=
EXTT10=
EXTT11=
EXTT12=
EXTT13=
EXTT14=
EXTT15=
PLAYORDER=
